<mxfile host="app.diagrams.net" modified="2020-11-10T11:24:11.639Z" agent="5.0 (Windows NT 10.0; Win64; x64) AppleWebKit/537.36 (KHTML, like Gecko) Chrome/86.0.4240.183 Safari/537.36" etag="0vkninO05HZ1X9PcCFcA" version="13.9.2" type="github">
  <diagram id="7y8E78pFv6cVUg6_4FCI" name="Page-1">
    <mxGraphModel dx="1422" dy="762" grid="1" gridSize="10" guides="1" tooltips="1" connect="1" arrows="1" fold="1" page="1" pageScale="1" pageWidth="827" pageHeight="1169" math="0" shadow="0">
      <root>
        <mxCell id="0" />
        <mxCell id="1" parent="0" />
        <mxCell id="S7WIwHEId6B7ZzX8JlJt-13" value="Local Machine" style="rounded=1;whiteSpace=wrap;html=1;fontSize=11;verticalAlign=top;align=center;" vertex="1" parent="1">
          <mxGeometry x="60" y="130" width="720" height="140" as="geometry" />
        </mxCell>
        <mxCell id="S7WIwHEId6B7ZzX8JlJt-1" value="Web" style="ellipse;whiteSpace=wrap;html=1;aspect=fixed;fillColor=#dae8fc;strokeColor=#6c8ebf;" vertex="1" parent="1">
          <mxGeometry x="80" y="160" width="80" height="80" as="geometry" />
        </mxCell>
        <mxCell id="S7WIwHEId6B7ZzX8JlJt-2" value="Claim" style="ellipse;whiteSpace=wrap;html=1;aspect=fixed;fillColor=#dae8fc;strokeColor=#6c8ebf;" vertex="1" parent="1">
          <mxGeometry x="200" y="160" width="80" height="80" as="geometry" />
        </mxCell>
        <mxCell id="S7WIwHEId6B7ZzX8JlJt-3" value="Payment" style="ellipse;whiteSpace=wrap;html=1;aspect=fixed;fillColor=#dae8fc;strokeColor=#6c8ebf;" vertex="1" parent="1">
          <mxGeometry x="320" y="160" width="80" height="80" as="geometry" />
        </mxCell>
        <mxCell id="S7WIwHEId6B7ZzX8JlJt-4" value="Payment Core" style="ellipse;whiteSpace=wrap;html=1;aspect=fixed;fillColor=#dae8fc;strokeColor=#6c8ebf;" vertex="1" parent="1">
          <mxGeometry x="440" y="160" width="80" height="80" as="geometry" />
        </mxCell>
        <mxCell id="S7WIwHEId6B7ZzX8JlJt-5" value="Payment Web" style="ellipse;whiteSpace=wrap;html=1;aspect=fixed;fillColor=#dae8fc;strokeColor=#6c8ebf;" vertex="1" parent="1">
          <mxGeometry x="560" y="160" width="80" height="80" as="geometry" />
        </mxCell>
        <mxCell id="S7WIwHEId6B7ZzX8JlJt-6" value="Calculation" style="ellipse;whiteSpace=wrap;html=1;aspect=fixed;fillColor=#dae8fc;strokeColor=#6c8ebf;" vertex="1" parent="1">
          <mxGeometry x="680" y="160" width="80" height="80" as="geometry" />
        </mxCell>
        <mxCell id="S7WIwHEId6B7ZzX8JlJt-7" value="Docker Compose&lt;br style=&quot;font-size: 9px;&quot;&gt;Configuration" style="ellipse;whiteSpace=wrap;html=1;fontSize=9;" vertex="1" parent="1">
          <mxGeometry x="200" y="220" width="80" height="40" as="geometry" />
        </mxCell>
        <mxCell id="S7WIwHEId6B7ZzX8JlJt-8" value="Docker Compose&lt;br style=&quot;font-size: 9px;&quot;&gt;Configuration" style="ellipse;whiteSpace=wrap;html=1;fontSize=9;" vertex="1" parent="1">
          <mxGeometry x="80" y="220" width="80" height="40" as="geometry" />
        </mxCell>
        <mxCell id="S7WIwHEId6B7ZzX8JlJt-9" value="Docker Compose&lt;br style=&quot;font-size: 9px;&quot;&gt;Configuration" style="ellipse;whiteSpace=wrap;html=1;fontSize=9;" vertex="1" parent="1">
          <mxGeometry x="680" y="220" width="80" height="40" as="geometry" />
        </mxCell>
        <mxCell id="S7WIwHEId6B7ZzX8JlJt-10" value="Docker Compose&lt;br style=&quot;font-size: 9px;&quot;&gt;Configuration" style="ellipse;whiteSpace=wrap;html=1;fontSize=9;" vertex="1" parent="1">
          <mxGeometry x="560" y="220" width="80" height="40" as="geometry" />
        </mxCell>
        <mxCell id="S7WIwHEId6B7ZzX8JlJt-11" value="Docker Compose&lt;br style=&quot;font-size: 9px;&quot;&gt;Configuration" style="ellipse;whiteSpace=wrap;html=1;fontSize=9;" vertex="1" parent="1">
          <mxGeometry x="440" y="220" width="80" height="40" as="geometry" />
        </mxCell>
        <mxCell id="S7WIwHEId6B7ZzX8JlJt-12" value="Docker Compose&lt;br style=&quot;font-size: 9px;&quot;&gt;Configuration" style="ellipse;whiteSpace=wrap;html=1;fontSize=9;" vertex="1" parent="1">
          <mxGeometry x="320" y="220" width="80" height="40" as="geometry" />
        </mxCell>
        <mxCell id="S7WIwHEId6B7ZzX8JlJt-14" value="Local Machine" style="rounded=1;whiteSpace=wrap;html=1;fontSize=11;verticalAlign=top;align=center;" vertex="1" parent="1">
          <mxGeometry x="60" y="440" width="720" height="270" as="geometry" />
        </mxCell>
        <mxCell id="S7WIwHEId6B7ZzX8JlJt-15" value="Web" style="ellipse;whiteSpace=wrap;html=1;aspect=fixed;fillColor=#dae8fc;strokeColor=#6c8ebf;" vertex="1" parent="1">
          <mxGeometry x="80" y="470" width="80" height="80" as="geometry" />
        </mxCell>
        <mxCell id="S7WIwHEId6B7ZzX8JlJt-16" value="Claim" style="ellipse;whiteSpace=wrap;html=1;aspect=fixed;fillColor=#dae8fc;strokeColor=#6c8ebf;" vertex="1" parent="1">
          <mxGeometry x="200" y="470" width="80" height="80" as="geometry" />
        </mxCell>
        <mxCell id="S7WIwHEId6B7ZzX8JlJt-17" value="Payment" style="ellipse;whiteSpace=wrap;html=1;aspect=fixed;fillColor=#dae8fc;strokeColor=#6c8ebf;" vertex="1" parent="1">
          <mxGeometry x="320" y="470" width="80" height="80" as="geometry" />
        </mxCell>
        <mxCell id="S7WIwHEId6B7ZzX8JlJt-18" value="Payment Core" style="ellipse;whiteSpace=wrap;html=1;aspect=fixed;fillColor=#dae8fc;strokeColor=#6c8ebf;" vertex="1" parent="1">
          <mxGeometry x="440" y="470" width="80" height="80" as="geometry" />
        </mxCell>
        <mxCell id="S7WIwHEId6B7ZzX8JlJt-19" value="Payment Web" style="ellipse;whiteSpace=wrap;html=1;aspect=fixed;fillColor=#dae8fc;strokeColor=#6c8ebf;" vertex="1" parent="1">
          <mxGeometry x="560" y="470" width="80" height="80" as="geometry" />
        </mxCell>
        <mxCell id="S7WIwHEId6B7ZzX8JlJt-20" value="Calculation" style="ellipse;whiteSpace=wrap;html=1;aspect=fixed;fillColor=#dae8fc;strokeColor=#6c8ebf;" vertex="1" parent="1">
          <mxGeometry x="680" y="470" width="80" height="80" as="geometry" />
        </mxCell>
        <mxCell id="S7WIwHEId6B7ZzX8JlJt-21" value="Docker Compose&lt;br style=&quot;font-size: 9px;&quot;&gt;Configuration" style="ellipse;whiteSpace=wrap;html=1;fontSize=9;" vertex="1" parent="1">
          <mxGeometry x="200" y="530" width="80" height="40" as="geometry" />
        </mxCell>
        <mxCell id="S7WIwHEId6B7ZzX8JlJt-22" value="Docker Compose&lt;br style=&quot;font-size: 9px;&quot;&gt;Configuration" style="ellipse;whiteSpace=wrap;html=1;fontSize=9;" vertex="1" parent="1">
          <mxGeometry x="80" y="530" width="80" height="40" as="geometry" />
        </mxCell>
        <mxCell id="S7WIwHEId6B7ZzX8JlJt-23" value="Docker Compose&lt;br style=&quot;font-size: 9px;&quot;&gt;Configuration" style="ellipse;whiteSpace=wrap;html=1;fontSize=9;" vertex="1" parent="1">
          <mxGeometry x="680" y="530" width="80" height="40" as="geometry" />
        </mxCell>
        <mxCell id="S7WIwHEId6B7ZzX8JlJt-24" value="Docker Compose&lt;br style=&quot;font-size: 9px;&quot;&gt;Configuration" style="ellipse;whiteSpace=wrap;html=1;fontSize=9;" vertex="1" parent="1">
          <mxGeometry x="560" y="530" width="80" height="40" as="geometry" />
        </mxCell>
        <mxCell id="S7WIwHEId6B7ZzX8JlJt-25" value="Docker Compose&lt;br style=&quot;font-size: 9px;&quot;&gt;Configuration" style="ellipse;whiteSpace=wrap;html=1;fontSize=9;" vertex="1" parent="1">
          <mxGeometry x="440" y="530" width="80" height="40" as="geometry" />
        </mxCell>
        <mxCell id="S7WIwHEId6B7ZzX8JlJt-26" value="Docker Compose&lt;br style=&quot;font-size: 9px;&quot;&gt;Configuration" style="ellipse;whiteSpace=wrap;html=1;fontSize=9;" vertex="1" parent="1">
          <mxGeometry x="320" y="530" width="80" height="40" as="geometry" />
        </mxCell>
        <mxCell id="S7WIwHEId6B7ZzX8JlJt-28" style="edgeStyle=orthogonalEdgeStyle;rounded=0;orthogonalLoop=1;jettySize=auto;html=1;fontSize=11;" edge="1" parent="1" source="S7WIwHEId6B7ZzX8JlJt-27" target="S7WIwHEId6B7ZzX8JlJt-22">
          <mxGeometry relative="1" as="geometry" />
        </mxCell>
        <mxCell id="S7WIwHEId6B7ZzX8JlJt-29" style="edgeStyle=orthogonalEdgeStyle;rounded=0;orthogonalLoop=1;jettySize=auto;html=1;fontSize=11;" edge="1" parent="1" source="S7WIwHEId6B7ZzX8JlJt-27" target="S7WIwHEId6B7ZzX8JlJt-21">
          <mxGeometry relative="1" as="geometry" />
        </mxCell>
        <mxCell id="S7WIwHEId6B7ZzX8JlJt-30" style="edgeStyle=orthogonalEdgeStyle;rounded=0;orthogonalLoop=1;jettySize=auto;html=1;entryX=0.5;entryY=1;entryDx=0;entryDy=0;fontSize=11;exitX=0;exitY=0.5;exitDx=0;exitDy=0;" edge="1" parent="1" source="S7WIwHEId6B7ZzX8JlJt-27" target="S7WIwHEId6B7ZzX8JlJt-26">
          <mxGeometry relative="1" as="geometry">
            <Array as="points">
              <mxPoint x="360" y="660" />
            </Array>
          </mxGeometry>
        </mxCell>
        <mxCell id="S7WIwHEId6B7ZzX8JlJt-31" style="edgeStyle=orthogonalEdgeStyle;rounded=0;orthogonalLoop=1;jettySize=auto;html=1;fontSize=11;exitX=1;exitY=0.5;exitDx=0;exitDy=0;" edge="1" parent="1" source="S7WIwHEId6B7ZzX8JlJt-27" target="S7WIwHEId6B7ZzX8JlJt-25">
          <mxGeometry relative="1" as="geometry" />
        </mxCell>
        <mxCell id="S7WIwHEId6B7ZzX8JlJt-32" style="edgeStyle=orthogonalEdgeStyle;rounded=0;orthogonalLoop=1;jettySize=auto;html=1;entryX=0.5;entryY=1;entryDx=0;entryDy=0;fontSize=11;" edge="1" parent="1" source="S7WIwHEId6B7ZzX8JlJt-27" target="S7WIwHEId6B7ZzX8JlJt-24">
          <mxGeometry relative="1" as="geometry" />
        </mxCell>
        <mxCell id="S7WIwHEId6B7ZzX8JlJt-33" style="edgeStyle=orthogonalEdgeStyle;rounded=0;orthogonalLoop=1;jettySize=auto;html=1;fontSize=11;" edge="1" parent="1" source="S7WIwHEId6B7ZzX8JlJt-27" target="S7WIwHEId6B7ZzX8JlJt-23">
          <mxGeometry relative="1" as="geometry" />
        </mxCell>
        <mxCell id="S7WIwHEId6B7ZzX8JlJt-27" value="Development Repo" style="ellipse;whiteSpace=wrap;html=1;aspect=fixed;fillColor=#dae8fc;strokeColor=#6c8ebf;" vertex="1" parent="1">
          <mxGeometry x="380" y="620" width="80" height="80" as="geometry" />
        </mxCell>
      </root>
    </mxGraphModel>
  </diagram>
</mxfile>
